<?xml version="1.0" encoding="UTF-8" standalone="no"?>
<!-- Created with Inkscape (http://www.inkscape.org/) -->

<svg
   width="1024"
   height="1024"
   viewBox="0 0 270.93333 270.93333"
   version="1.1"
   id="svg5"
   xml:space="preserve"
   inkscape:version="1.2.2 (b0a8486541, 2022-12-01)"
   sodipodi:docname="icon-source.svg"
   inkscape:export-filename="adaptive-icon.png"
   inkscape:export-xdpi="96"
   inkscape:export-ydpi="96"
   xmlns:inkscape="http://www.inkscape.org/namespaces/inkscape"
   xmlns:sodipodi="http://sodipodi.sourceforge.net/DTD/sodipodi-0.dtd"
   xmlns="http://www.w3.org/2000/svg"
   xmlns:svg="http://www.w3.org/2000/svg"><sodipodi:namedview
     id="namedview7"
     pagecolor="#ffffff"
     bordercolor="#000000"
     borderopacity="0.25"
     inkscape:showpageshadow="2"
     inkscape:pageopacity="0.0"
     inkscape:pagecheckerboard="0"
     inkscape:deskcolor="#d1d1d1"
     inkscape:document-units="mm"
     showgrid="false"
     inkscape:zoom="0.4204826"
     inkscape:cx="380.51515"
     inkscape:cy="384.08248"
     inkscape:window-width="1470"
     inkscape:window-height="891"
     inkscape:window-x="0"
     inkscape:window-y="0"
     inkscape:window-maximized="1"
     inkscape:current-layer="layer1" /><defs
     id="defs2"><rect
       x="656.74164"
       y="534.70923"
       width="131.60101"
       height="65.159508"
       id="rect2233" /><rect
       x="-45.516357"
       y="-349.38321"
       width="817.10504"
       height="337.05164"
       id="rect8894" /></defs><g
     inkscape:label="Layer 1"
     inkscape:groupmode="layer"
     id="layer1"><g
       id="g4915"
       transform="matrix(0.44209299,0,0,0.44209299,56.68672,254.33044)">
</g><g
       id="g4917"
       transform="matrix(0.44209299,0,0,0.44209299,56.68672,254.33044)">
</g><g
       id="g4919"
       transform="matrix(0.44209299,0,0,0.44209299,56.68672,254.33044)">
</g><g
       id="g4921"
       transform="matrix(0.44209299,0,0,0.44209299,56.68672,254.33044)">
</g><g
       id="g4923"
       transform="matrix(0.44209299,0,0,0.44209299,56.68672,254.33044)">
</g><g
       id="g4925"
       transform="matrix(0.44209299,0,0,0.44209299,56.68672,254.33044)">
</g><g
       id="g4927"
       transform="matrix(0.44209299,0,0,0.44209299,56.68672,254.33044)">
</g><g
       id="g4929"
       transform="matrix(0.44209299,0,0,0.44209299,56.68672,254.33044)">
</g><g
       id="g4931"
       transform="matrix(0.44209299,0,0,0.44209299,56.68672,254.33044)">
</g><g
       id="g4933"
       transform="matrix(0.44209299,0,0,0.44209299,56.68672,254.33044)">
</g><g
       id="g4935"
       transform="matrix(0.44209299,0,0,0.44209299,56.68672,254.33044)">
</g><g
       id="g4937"
       transform="matrix(0.44209299,0,0,0.44209299,56.68672,254.33044)">
</g><g
       id="g4939"
       transform="matrix(0.44209299,0,0,0.44209299,56.68672,254.33044)">
</g><g
       id="g4941"
       transform="matrix(0.44209299,0,0,0.44209299,56.68672,254.33044)">
</g><g
       id="g4943"
       transform="matrix(0.44209299,0,0,0.44209299,56.68672,254.33044)">
</g><g
       id="g2560-1-0"
       transform="matrix(0.55772944,0.20227229,-0.20227229,0.55772944,403.1122,370.82849)"><text
         xml:space="preserve"
         style="font-style:normal;font-weight:normal;font-size:3.56776px;line-height:1.25;font-family:sans-serif;letter-spacing:0px;word-spacing:0px;fill:#000000;fill-opacity:1;stroke:none;stroke-width:0.44597"
         x="168.9895"
         y="242.64679"
         id="text3817"
         transform="rotate(-19.934239)" /><g
         id="g3402"
         transform="matrix(1.8272121,-0.66267682,0.66267682,1.8272121,-193.85035,-89.917792)"><g
           id="g9935-1-1"
           transform="matrix(0.50210402,0,0,0.50210402,-1281.133,1056.2992)" /><g
           id="g1214"
           transform="translate(-0.38499453,8.0787624)" /><text
           xml:space="preserve"
           transform="matrix(0.22944774,0,0,0.22944774,-10.989214,223.19676)"
           id="text8892"
           style="font-style:normal;font-weight:normal;font-size:40px;line-height:1.25;font-family:sans-serif;white-space:pre;shape-inside:url(#rect8894);display:inline;fill:#000000;fill-opacity:1;stroke:none" /></g></g><text
       xml:space="preserve"
       transform="matrix(0.26458334,0,0,0.26458334,6.5487519e-7,1.643272e-6)"
       id="text2231"
       style="font-style:normal;font-variant:normal;font-weight:500;font-stretch:normal;font-size:20px;font-family:Federation;-inkscape-font-specification:'Federation Medium';text-align:center;white-space:pre;shape-inside:url(#rect2233);display:inline;fill:#fb8500;stroke:#b9b9b9;stroke-width:0" /><path
       d="m 488.70422,-38.245706 q -0.27805,-2.80263 -2.40869,-4.354371 -2.10782,-1.55174 -5.69774,-1.55174 -3.68299,0 -5.65149,1.505501 -1.96911,1.505506 -1.96911,3.79829 -0.0462,2.548004 2.17748,3.867954 2.24655,1.297124 5.32661,2.015347 l 4.2625,1.019079 q 4.12258,0.926605 7.31915,2.686727 3.21879,1.760128 5.04916,4.539947 1.85261,2.756376 1.85261,6.716809 -0.0229,6.508431 -4.88703,10.3763949 -4.84019,3.8445095 -13.52673,3.8445095 -8.63908,0 -13.78133,-3.9375917 -5.14166,-3.9370137 -5.32661,-11.6272797 h 9.70441 q 0.25461,3.567103 2.80263,5.37346 2.57082,1.783546 6.48561,1.783546 3.82111,0 6.09108,-1.621399 2.29279,-1.621414 2.31621,-4.215662 -0.0229,-2.408079 -2.10784,-3.705214 -2.085,-1.297129 -5.95235,-2.223724 l -5.16507,-1.297124 q -5.9992,-1.435842 -9.47321,-4.562747 -3.47462,-3.12691 -3.45119,-8.361662 -0.0235,-4.308111 2.29278,-7.52751 2.33962,-3.242793 6.41596,-5.02637 4.07694,-1.806357 9.26483,-1.806357 5.28099,0 9.21859,1.806357 3.96103,1.806991 6.16135,5.02637 2.20029,3.219399 2.26996,7.457857 z m 16.79115,33.7930773 V -40.029247 h 9.86715 v 35.5766183 z m 4.95669,-40.1628003 q -2.17748,0 -3.75206,-1.459261 -1.57515,-1.482078 -1.57515,-3.543659 0,-2.061602 1.57515,-3.520859 1.57458,-1.459281 3.75206,-1.459281 2.2003,0 3.77547,1.459281 1.57457,1.459257 1.57457,3.520859 0,2.061581 -1.57457,3.543659 -1.57517,1.459261 -3.77547,1.459261 z m 28.81656,54.2456101 q -7.18042,0 -11.27955,-2.8722886 -4.09977,-2.8488597 -4.98012,-7.04110836 l 9.1255,-1.22746074 q 0.60233,1.62140392 2.33963,2.8260592 1.76014,1.2274557 5.02635,1.2274557 3.21881,0 5.3038,-1.57516442 2.10782,-1.55175069 2.10782,-5.21130728 v -6.5084516 h -0.41675 q -0.97285,2.2003152 -3.42837,4.0066823 -2.45494,1.7835312 -6.71683,1.7835312 -4.00667,0 -7.29572,-1.8760204 -3.26563,-1.8760152 -5.21131,-5.7205601 -1.92227,-3.845123 -1.92227,-9.751239 0,-6.068264 1.9685,-10.098361 1.99194,-4.030689 5.25755,-6.045433 3.28906,-2.038761 7.18044,-2.038761 2.98818,0 5.00292,1.019677 2.01536,0.99566 3.26625,2.477748 1.25087,1.48268 1.89884,2.941942 h 0.37112 v -5.975775 h 9.79749 v 35.9231258 q 0,4.53994223 -2.24715,7.597787 -2.22311,3.0572568 -6.13732,4.5861716 -3.9148,1.5517507 -9.01082,1.5517507 z m 0.2084,-22.0036751 q 3.56708,0 5.51277,-2.640488 1.96851,-2.640473 1.96851,-7.342547 0,-4.678656 -1.94569,-7.481286 -1.94568,-2.802635 -5.53559,-2.802635 -3.65958,0 -5.58184,2.872283 -1.89945,2.871701 -1.89945,7.411638 0,4.608982 1.92287,7.295714 1.92166,2.686728 5.55842,2.686728 z m 34.92806,-12.646349 v 20.5678328 h -9.86717 V -40.028654 h 9.40357 v 6.276651 h 0.41675 q 1.20465,-3.103491 3.96103,-4.910467 2.77922,-1.829776 6.74025,-1.829776 5.55844,0 8.91713,3.589909 3.35811,3.567088 3.35811,9.798082 v 22.6516263 h -9.86656 V -25.344716 q 0.0229,-3.265638 -1.66823,-5.095419 -1.69047,-1.852607 -4.65524,-1.852607 -2.98819,0 -4.86421,1.921667 -1.85262,1.900037 -1.87603,5.350634 z m 40.82938,21.2392079 q -5.09542,0 -8.45412,-2.6639117 -3.35872,-2.6633035 -3.35872,-7.9442992 0,-3.983837 1.87663,-6.253795 1.87603,-2.269974 4.90986,-3.311868 3.05785,-1.065334 6.5781,-1.389624 4.63241,-0.463591 6.62435,-0.972834 1.9919,-0.509831 1.9919,-2.223719 v -0.138728 q 0,-2.200306 -1.38958,-3.404966 -1.3662,-1.20463 -3.89139,-1.20463 -2.6633,0 -4.23846,1.15839 -1.57458,1.157818 -2.08442,2.941359 l -9.1255,-0.741043 q 1.01908,-4.864202 5.04917,-7.713077 4.05352,-2.848865 10.44606,-2.848865 3.96102,0 7.41163,1.250875 3.45117,1.250895 5.55899,3.914188 2.13067,2.640488 2.13067,6.878966 v 23.9955883 h -9.35733 v -4.9332619 h -0.27803 q -1.29713,2.4783455 -3.89137,4.0534947 -2.57024,1.5517608 -6.50783,1.5517608 z m 2.82544,-6.8093129 q 3.24282,0 5.32721,-1.876025 2.08502,-1.899434 2.08502,-4.70207 v -3.775469 q -0.5789,0.393943 -1.80696,0.695402 -1.20404,0.300866 -2.59425,0.532657 -1.36618,0.208377 -2.45494,0.370534 -2.59424,0.370509 -4.19161,1.459236 -1.57577,1.088758 -1.57577,3.17316 0,2.038173 1.45926,3.080676 1.48269,1.041899 3.75264,1.041899 z m 34.74311,-41.297767 v 47.4350863 h -9.86716 V -51.887715 Z"
       fill="#1b1b1b"
       id="path30354"
       style="stroke-width:0.600521" /><text
       xml:space="preserve"
       style="font-weight:300;font-size:41.274px;font-family:Montserrat;-inkscape-font-specification:'Montserrat Light';text-align:center;text-anchor:middle;fill:#ffb703;fill-opacity:1;stroke:#b9b9b9;stroke-width:0"
       x="526.13995"
       y="39.488392"
       id="text10526-3"><tspan
         sodipodi:role="line"
         id="tspan10524-6"
         style="font-style:normal;font-variant:normal;font-weight:normal;font-stretch:normal;font-family:Montalban;-inkscape-font-specification:Montalban;fill:#ffb703;fill-opacity:1;stroke-width:0"
         x="526.13995"
         y="39.488392">Installer</tspan></text><path
       id="path30352"
       style="fill:#ffb703;fill-opacity:1;stroke-width:0.778019"
       d="m 138.112,73.500424 a 62.715993,62.715993 0 0 0 -9.36377,0.702799 l 0.8785,5.790344 a 57.033351,57.033351 0 0 1 16.97002,0 l 0.87902,-5.790344 A 62.715993,62.715993 0 0 0 138.112,73.500424 Z m -14.99702,1.824178 a 62.25696,62.25696 0 0 0 -17.3023,7.157702 l 3.00757,5.018299 a 56.477069,56.477069 0 0 1 15.70033,-6.493661 z m 29.99559,0 -1.40612,5.68234 a 56.477069,56.477069 0 0 1 15.70034,6.493661 l 3.0272,-5.018299 a 62.25696,62.25696 0 0 0 -17.32142,-7.157702 z m -14.9996,9.89707 A 50.774201,50.774201 0 0 0 95.148716,163.01383 l -4.882389,20.82767 20.827163,-4.88291 A 50.774201,50.774201 0 1 0 138.112,85.223222 Z m -37.10214,0.464571 A 62.589173,62.589173 0 0 0 87.808595,98.887504 l 4.715475,3.515036 a 56.838069,56.838069 0 0 1 11.9998,-12.000306 z m 74.20892,0 -3.51504,4.715991 a 56.838069,56.838069 0 0 1 11.99979,12.000306 l 4.71651,-3.515036 A 62.589173,62.589173 0 0 0 175.21775,85.686243 Z M 134.59594,101.6553 h 4.68601 v 41.66981 l 12.35894,-12.35842 3.31349,3.31349 -18.01544,18.01492 -18.01492,-18.01492 3.3135,-3.31349 12.35842,12.35842 z m -49.992317,2.03502 a 62.25696,62.25696 0 0 0 -7.157703,17.3023 l 5.683374,1.4056 a 56.477069,56.477069 0 0 1 6.493661,-15.70034 z m 107.016217,0.002 -5.01829,3.00705 a 56.477069,56.477069 0 0 1 6.49262,15.68173 l 5.68338,-1.40612 a 62.25696,62.25696 0 0 0 -7.15771,-17.28311 z M 76.323508,126.62638 a 62.715993,62.715993 0 0 0 0,18.72806 l 5.790345,-0.87902 a 56.535419,56.535419 0 0 1 -0.634587,-8.48527 56.535419,56.535419 0 0 1 0.634587,-8.48475 z m 123.578002,0 -5.78983,0.87902 a 56.535419,56.535419 0 0 1 0.63511,8.48475 56.535419,56.535419 0 0 1 -0.63511,8.48527 l 5.78983,0.87902 a 62.715993,62.715993 0 0 0 0,-18.72806 z m -6.80527,22.95571 a 56.477069,56.477069 0 0 1 -6.49314,15.70085 l 5.0183,3.0272 a 62.25696,62.25696 0 0 0 7.1577,-17.32194 z m -109.967462,0.002 -5.683374,1.40611 a 62.022777,62.022777 0 0 0 5.760372,14.85181 l -1.435055,6.17172 5.703011,1.32756 1.952853,-8.38708 a 56.389151,56.389151 0 0 1 -6.297807,-15.37057 z m 23.821302,7.36389 h 59.97825 v 4.68602 h -59.97825 z m 76.75242,12.64161 a 56.838069,56.838069 0 0 1 -11.99979,11.99048 l 3.47576,4.71651 a 62.589173,62.589173 0 0 0 13.24054,-13.20127 z m -103.152376,7.64707 -2.821017,12.09797 a 5.8584717,5.8584717 0 0 0 7.040397,7.0404 l 12.088151,-2.77296 -1.328084,-5.75158 -12.098486,2.82256 2.82205,-12.09848 z m 86.856216,7.24401 a 56.477069,56.477069 0 0 1 -15.68173,6.49262 l 1.40663,5.68286 a 62.25696,62.25696 0 0 0 17.28266,-7.15719 z m -58.2564,0.18758 -0.0387,0.0388 -8.3871,1.95285 1.32757,5.70301 6.17121,-1.43609 a 62.022777,62.022777 0 0 0 14.85129,5.76089 l 1.40611,-5.68234 a 56.389151,56.389151 0 0 1 -15.33033,-6.33708 z m 20.47834,7.3303 -0.87902,5.79035 a 62.715993,62.715993 0 0 0 18.72806,0 l -0.87902,-5.79035 a 57.033351,57.033351 0 0 1 -16.97002,0 z" /></g></svg>
