<?xml version="1.0" encoding="UTF-8" standalone="no"?>
<!-- Created with Inkscape (http://www.inkscape.org/) -->

<svg
   width="600"
   height="600"
   viewBox="0 0 158.75 158.75"
   version="1.1"
   id="svg2443"
   inkscape:version="1.2.2 (b0a8486541, 2022-12-01)"
   sodipodi:docname="signal-logo.svg"
   inkscape:export-filename="signal-logo.png"
   inkscape:export-xdpi="96"
   inkscape:export-ydpi="96"
   xmlns:inkscape="http://www.inkscape.org/namespaces/inkscape"
   xmlns:sodipodi="http://sodipodi.sourceforge.net/DTD/sodipodi-0.dtd"
   xmlns="http://www.w3.org/2000/svg"
   xmlns:svg="http://www.w3.org/2000/svg">
  <sodipodi:namedview
     id="namedview2445"
     pagecolor="#ffffff"
     bordercolor="#000000"
     borderopacity="0.25"
     inkscape:showpageshadow="2"
     inkscape:pageopacity="0.0"
     inkscape:pagecheckerboard="0"
     inkscape:deskcolor="#d1d1d1"
     inkscape:document-units="mm"
     showgrid="false"
     inkscape:zoom="0.2102413"
     inkscape:cx="76.103029"
     inkscape:cy="563.63806"
     inkscape:window-width="1470"
     inkscape:window-height="891"
     inkscape:window-x="0"
     inkscape:window-y="0"
     inkscape:window-maximized="1"
     inkscape:current-layer="layer1" />
  <defs
     id="defs2440" />
  <g
     inkscape:label="Layer 1"
     inkscape:groupmode="layer"
     id="layer1">
    <path
       d="m 64.89042,20.779941 1.357768,5.488167 a 54.544282,54.544282 0 0 0 -15.163087,6.271117 l -2.90488,-4.846478 A 60.12637,60.12637 0 0 1 64.89042,20.779941 Z m 28.96916,0 -1.357765,5.488167 a 54.544282,54.544282 0 0 1 15.163085,6.271117 l 2.92366,-4.846478 A 60.12637,60.12637 0 0 0 93.85958,20.779941 Z M 27.697279,48.174935 a 60.12637,60.12637 0 0 0 -6.912802,16.710203 l 5.488916,1.357764 a 54.544282,54.544282 0 0 1 6.271115,-15.163087 z m -3.017587,31.194783 a 54.600634,54.600634 0 0 1 0.613136,-8.19468 l -5.59261,-0.849072 a 60.569691,60.569691 0 0 0 0,18.087489 l 5.59261,-0.849047 a 54.600634,54.600634 0 0 1 -0.613136,-8.19469 z m 85.891588,51.676982 -2.90488,-4.84647 a 54.544282,54.544282 0 0 1 -15.145049,6.27034 l 1.358517,5.48817 a 60.12637,60.12637 0 0 0 16.691412,-6.91204 z m 23.49978,-51.676982 a 54.600634,54.600634 0 0 1 -0.61313,8.19469 l 5.59185,0.849047 a 60.569691,60.569691 0 0 0 0,-18.087489 l -5.59185,0.849072 a 54.600634,54.600634 0 0 1 0.61313,8.19468 z m 3.89446,14.484571 -5.48816,-1.357759 a 54.544282,54.544282 0 0 1 -6.27112,15.16308 l 4.84648,2.92368 a 60.12637,60.12637 0 0 0 6.9128,-16.729001 z M 87.570432,133.4609 a 55.081527,55.081527 0 0 1 -16.389359,0 l -0.849072,5.59186 a 60.569691,60.569691 0 0 0 18.087503,0 z m 35.834618,-21.64233 a 54.892926,54.892926 0 0 1 -11.58946,11.58046 l 3.35722,4.55492 a 60.447214,60.447214 0 0 0 12.78718,-12.74962 z M 111.81559,35.341914 a 54.892926,54.892926 0 0 1 11.58946,11.589469 l 4.55494,-3.39479 A 60.447214,60.447214 0 0 0 115.21037,30.786977 Z M 35.34645,46.931383 A 54.892926,54.892926 0 0 1 46.935916,35.341914 l -3.39479,-4.554937 A 60.447214,60.447214 0 0 0 30.792263,43.536593 Z m 95.70477,1.245054 -4.84648,2.904131 a 54.544282,54.544282 0 0 1 6.27037,15.145051 l 5.48891,-1.357765 a 60.12637,60.12637 0 0 0 -6.9128,-16.691417 z M 71.179571,25.289044 a 55.081527,55.081527 0 0 1 16.389359,0 l 0.849072,-5.591857 a 60.569691,60.569691 0 0 0 -18.086753,0 z M 38.249075,129.4545 l -11.684143,2.72603 2.725299,-11.68414 -5.507702,-1.29239 -2.724546,11.68414 a 5.6579802,5.6579802 0 0 0 6.799342,6.79936 l 11.674377,-2.67797 z m -13.287613,-15.2946 5.507702,1.28188 1.885993,-8.10001 A 54.459375,54.459375 0 0 1 26.272641,92.498035 l -5.488917,1.357759 a 59.9002,59.9002 0 0 0 5.563305,14.343316 z m 26.404659,12.25897 -8.100003,1.88598 1.281874,5.50771 5.96004,-1.38706 a 59.9002,59.9002 0 0 0 14.343317,5.56406 l 1.357765,-5.48818 A 54.459375,54.459375 0 0 1 51.40369,126.3813 Z M 79.373498,30.338397 A 49.03658,49.03658 0 0 0 37.881645,105.46857 l -4.715735,20.11474 20.114756,-4.71572 A 49.03658,49.03658 0 1 0 79.37425,30.3399 Z"
       fill="#3a76f0"
       id="path1519"
       style="stroke-width:0.751391;fill:#ffffff" />
  </g>
</svg>
